{
    "asset" : {
        "generator" : "Khronos glTF Blender I/O v3.2.43",
        "version" : "2.0"
    },
    "scene" : 0,
    "scenes" : [
        {
            "name" : "Scene",
            "nodes" : [
                0,
                1,
                2,
                3
            ]
        }
    ],
    "nodes" : [
        {
            "mesh" : 0,
            "name" : "Cube",
            "scale" : [
                1.2694995403289795,
                1.2694995403289795,
                1.2694995403289795
            ],
            "translation" : [
                0.0003665909171104431,
                0.3808647394180298,
                -0.008334361016750336
            ]
        },
        {
            "mesh" : 1,
            "name" : "Cube.001",
            "scale" : [
                1.2694995403289795,
                1.2694995403289795,
                1.2694995403289795
            ],
            "translation" : [
                0.04647520184516907,
                1.7741423845291138,
                -0.023746110498905182
            ]
        },
        {
            "mesh" : 2,
            "name" : "Plane",
            "translation" : [
                0.0003665909171104431,
                2.691554307937622,
                -0.008334361016750336
            ]
        },
        {
            "mesh" : 3,
            "name" : "Cube.002",
            "rotation" : [
                0.9999769926071167,
                0,
                0,
                0.006786490324884653
            ],
            "scale" : [
                1.2694995403289795,
                1.2694995403289795,
                1.2694995403289795
            ],
            "translation" : [
                0.0003665909171104431,
                4.006285667419434,
                -0.008334361016750336
            ]
        }
    ],
    "animations" : [
        {
            "channels" : [
                {
                    "sampler" : 0,
                    "target" : {
                        "node" : 0,
                        "path" : "translation"
                    }
                },
                {
                    "sampler" : 1,
                    "target" : {
                        "node" : 0,
                        "path" : "rotation"
                    }
                },
                {
                    "sampler" : 2,
                    "target" : {
                        "node" : 0,
                        "path" : "scale"
                    }
                }
            ],
            "name" : "Cube",
            "samplers" : [
                {
                    "input" : 10,
                    "interpolation" : "LINEAR",
                    "output" : 11
                },
                {
                    "input" : 10,
                    "interpolation" : "LINEAR",
                    "output" : 12
                },
                {
                    "input" : 10,
                    "interpolation" : "LINEAR",
                    "output" : 13
                }
            ]
        },
        {
            "channels" : [
                {
                    "sampler" : 0,
                    "target" : {
                        "node" : 1,
                        "path" : "translation"
                    }
                },
                {
                    "sampler" : 1,
                    "target" : {
                        "node" : 1,
                        "path" : "rotation"
                    }
                },
                {
                    "sampler" : 2,
                    "target" : {
                        "node" : 1,
                        "path" : "scale"
                    }
                }
            ],
            "name" : "Cube.001",
            "samplers" : [
                {
                    "input" : 10,
                    "interpolation" : "LINEAR",
                    "output" : 14
                },
                {
                    "input" : 10,
                    "interpolation" : "LINEAR",
                    "output" : 15
                },
                {
                    "input" : 10,
                    "interpolation" : "LINEAR",
                    "output" : 16
                }
            ]
        },
        {
            "channels" : [
                {
                    "sampler" : 0,
                    "target" : {
                        "node" : 2,
                        "path" : "translation"
                    }
                },
                {
                    "sampler" : 1,
                    "target" : {
                        "node" : 2,
                        "path" : "rotation"
                    }
                },
                {
                    "sampler" : 2,
                    "target" : {
                        "node" : 2,
                        "path" : "scale"
                    }
                }
            ],
            "name" : "Plane",
            "samplers" : [
                {
                    "input" : 10,
                    "interpolation" : "LINEAR",
                    "output" : 17
                },
                {
                    "input" : 10,
                    "interpolation" : "LINEAR",
                    "output" : 18
                },
                {
                    "input" : 10,
                    "interpolation" : "LINEAR",
                    "output" : 19
                }
            ]
        },
        {
            "channels" : [
                {
                    "sampler" : 0,
                    "target" : {
                        "node" : 3,
                        "path" : "translation"
                    }
                },
                {
                    "sampler" : 1,
                    "target" : {
                        "node" : 3,
                        "path" : "rotation"
                    }
                },
                {
                    "sampler" : 2,
                    "target" : {
                        "node" : 3,
                        "path" : "scale"
                    }
                }
            ],
            "name" : "Cube.002",
            "samplers" : [
                {
                    "input" : 10,
                    "interpolation" : "LINEAR",
                    "output" : 20
                },
                {
                    "input" : 10,
                    "interpolation" : "LINEAR",
                    "output" : 21
                },
                {
                    "input" : 10,
                    "interpolation" : "LINEAR",
                    "output" : 22
                }
            ]
        }
    ],
    "materials" : [
        {
            "doubleSided" : true,
            "name" : "burMaterial",
            "pbrMetallicRoughness" : {
                "baseColorFactor" : [
                    0.8000000715255737,
                    0.17439843714237213,
                    0.00936602521687746,
                    1
                ],
                "metallicFactor" : 0,
                "roughnessFactor" : 0.8203125
            }
        },
        {
            "doubleSided" : true,
            "name" : "meatMaterial",
            "pbrMetallicRoughness" : {
                "baseColorFactor" : [
                    0.17334893345832825,
                    0.055916305631399155,
                    0.005834280513226986,
                    1
                ],
                "metallicFactor" : 0
            }
        },
        {
            "doubleSided" : true,
            "name" : "cheese",
            "pbrMetallicRoughness" : {
                "baseColorFactor" : [
                    0.8000000715255737,
                    0.24211066961288452,
                    0,
                    1
                ],
                "metallicFactor" : 0,
                "roughnessFactor" : 0.5625
            }
        }
    ],
    "meshes" : [
        {
            "name" : "Mesh",
            "primitives" : [
                {
                    "attributes" : {
                        "POSITION" : 0,
                        "NORMAL" : 1
                    },
                    "indices" : 2,
                    "material" : 0
                }
            ]
        },
        {
            "name" : "Mesh",
            "primitives" : [
                {
                    "attributes" : {
                        "POSITION" : 3,
                        "NORMAL" : 4
                    },
                    "indices" : 2,
                    "material" : 1
                }
            ]
        },
        {
            "name" : "Plane",
            "primitives" : [
                {
                    "attributes" : {
                        "POSITION" : 5,
                        "NORMAL" : 6
                    },
                    "indices" : 7,
                    "material" : 2
                }
            ]
        },
        {
            "name" : "Mesh",
            "primitives" : [
                {
                    "attributes" : {
                        "POSITION" : 8,
                        "NORMAL" : 9
                    },
                    "indices" : 2,
                    "material" : 0
                }
            ]
        }
    ],
    "accessors" : [
        {
            "bufferView" : 0,
            "componentType" : 5126,
            "count" : 3586,
            "max" : [
                3.623745918273926,
                1.0183603763580322,
                3.623745918273926
            ],
            "min" : [
                -3.623745918273926,
                -0.08823521435260773,
                -3.623745918273926
            ],
            "type" : "VEC3"
        },
        {
            "bufferView" : 1,
            "componentType" : 5126,
            "count" : 3586,
            "type" : "VEC3"
        },
        {
            "bufferView" : 2,
            "componentType" : 5123,
            "count" : 21504,
            "type" : "SCALAR"
        },
        {
            "bufferView" : 3,
            "componentType" : 5126,
            "count" : 3586,
            "max" : [
                3.7676854133605957,
                0.7158342599868774,
                3.767685651779175
            ],
            "min" : [
                -3.767685651779175,
                -0.1430048644542694,
                -3.767685651779175
            ],
            "type" : "VEC3"
        },
        {
            "bufferView" : 4,
            "componentType" : 5126,
            "count" : 3586,
            "type" : "VEC3"
        },
        {
            "bufferView" : 5,
            "componentType" : 5126,
            "count" : 242,
            "max" : [
                4.506289005279541,
                0.035033099353313446,
                4.506289005279541
            ],
            "min" : [
                -4.506289005279541,
                -1.2225011587142944,
                -4.506289005279541
            ],
            "type" : "VEC3"
        },
        {
            "bufferView" : 6,
            "componentType" : 5126,
            "count" : 242,
            "type" : "VEC3"
        },
        {
            "bufferView" : 7,
            "componentType" : 5123,
            "count" : 1440,
            "type" : "SCALAR"
        },
        {
            "bufferView" : 8,
            "componentType" : 5126,
            "count" : 3586,
            "max" : [
                3.6204397678375244,
                1.0177282094955444,
                3.6204395294189453
            ],
            "min" : [
                -3.6204400062561035,
                -0.08823684602975845,
                -3.6204397678375244
            ],
            "type" : "VEC3"
        },
        {
            "bufferView" : 9,
            "componentType" : 5126,
            "count" : 3586,
            "type" : "VEC3"
        },
        {
            "bufferView" : 10,
            "componentType" : 5126,
            "count" : 2,
            "max" : [
                0.041666666666666664
            ],
            "min" : [
                0
            ],
            "type" : "SCALAR"
        },
        {
            "bufferView" : 11,
            "componentType" : 5126,
            "count" : 2,
            "type" : "VEC3"
        },
        {
            "bufferView" : 12,
            "componentType" : 5126,
            "count" : 2,
            "type" : "VEC4"
        },
        {
            "bufferView" : 13,
            "componentType" : 5126,
            "count" : 2,
            "type" : "VEC3"
        },
        {
            "bufferView" : 14,
            "componentType" : 5126,
            "count" : 2,
            "type" : "VEC3"
        },
        {
            "bufferView" : 15,
            "componentType" : 5126,
            "count" : 2,
            "type" : "VEC4"
        },
        {
            "bufferView" : 16,
            "componentType" : 5126,
            "count" : 2,
            "type" : "VEC3"
        },
        {
            "bufferView" : 17,
            "componentType" : 5126,
            "count" : 2,
            "type" : "VEC3"
        },
        {
            "bufferView" : 18,
            "componentType" : 5126,
            "count" : 2,
            "type" : "VEC4"
        },
        {
            "bufferView" : 19,
            "componentType" : 5126,
            "count" : 2,
            "type" : "VEC3"
        },
        {
            "bufferView" : 20,
            "componentType" : 5126,
            "count" : 2,
            "type" : "VEC3"
        },
        {
            "bufferView" : 21,
            "componentType" : 5126,
            "count" : 2,
            "type" : "VEC4"
        },
        {
            "bufferView" : 22,
            "componentType" : 5126,
            "count" : 2,
            "type" : "VEC3"
        }
    ],
    "bufferViews" : [
        {
            "buffer" : 0,
            "byteLength" : 43032,
            "byteOffset" : 0
        },
        {
            "buffer" : 0,
            "byteLength" : 43032,
            "byteOffset" : 43032
        },
        {
            "buffer" : 0,
            "byteLength" : 43008,
            "byteOffset" : 86064
        },
        {
            "buffer" : 0,
            "byteLength" : 43032,
            "byteOffset" : 129072
        },
        {
            "buffer" : 0,
            "byteLength" : 43032,
            "byteOffset" : 172104
        },
        {
            "buffer" : 0,
            "byteLength" : 2904,
            "byteOffset" : 215136
        },
        {
            "buffer" : 0,
            "byteLength" : 2904,
            "byteOffset" : 218040
        },
        {
            "buffer" : 0,
            "byteLength" : 2880,
            "byteOffset" : 220944
        },
        {
            "buffer" : 0,
            "byteLength" : 43032,
            "byteOffset" : 223824
        },
        {
            "buffer" : 0,
            "byteLength" : 43032,
            "byteOffset" : 266856
        },
        {
            "buffer" : 0,
            "byteLength" : 8,
            "byteOffset" : 309888
        },
        {
            "buffer" : 0,
            "byteLength" : 24,
            "byteOffset" : 309896
        },
        {
            "buffer" : 0,
            "byteLength" : 32,
            "byteOffset" : 309920
        },
        {
            "buffer" : 0,
            "byteLength" : 24,
            "byteOffset" : 309952
        },
        {
            "buffer" : 0,
            "byteLength" : 24,
            "byteOffset" : 309976
        },
        {
            "buffer" : 0,
            "byteLength" : 32,
            "byteOffset" : 310000
        },
        {
            "buffer" : 0,
            "byteLength" : 24,
            "byteOffset" : 310032
        },
        {
            "buffer" : 0,
            "byteLength" : 24,
            "byteOffset" : 310056
        },
        {
            "buffer" : 0,
            "byteLength" : 32,
            "byteOffset" : 310080
        },
        {
            "buffer" : 0,
            "byteLength" : 24,
            "byteOffset" : 310112
        },
        {
            "buffer" : 0,
            "byteLength" : 24,
            "byteOffset" : 310136
        },
        {
            "buffer" : 0,
            "byteLength" : 32,
            "byteOffset" : 310160
        },
        {
            "buffer" : 0,
            "byteLength" : 24,
            "byteOffset" : 310192
        }
    ],
    "buffers" : [
        {
            "byteLength" : 310216,
            "uri" : "hamburger.bin"
        }
    ]
}
